# xmcd
#
# Track frame offsets: 
#        150
#        15758
#        29190
#        45587
#        60739
#        79975
#        95880
#        113641
#
# Disc length: 1713 seconds
#
# Revision: 0
# Processed by: cddbd v1.5.2PL0 Copyright (c) Steve Scherf et al.
# Submitted via: ExactAudioCopy v0.99pb5
#
DISCID=6206af08
DTITLE=Dave Stone - Money Breeds Flies
DYEAR=2010
DGENRE=Country
TTITLE0=Simple Life
TTITLE1=Escape
TTITLE2=In the Kingdom
TTITLE3=Kamikaze Part 1
TTITLE4=On the Borderline
TTITLE5=Their Dream
TTITLE6=White Scorpion
TTITLE7=Little Devil
EXTD=
EXTT0=
EXTT1=
EXTT2=
EXTT3=
EXTT4=
EXTT5=
EXTT6=
EXTT7=
PLAYORDER=
